<mxfile host="Electron" modified="2024-05-15T23:49:42.747Z" agent="Mozilla/5.0 (Windows NT 10.0; Win64; x64) AppleWebKit/537.36 (KHTML, like Gecko) draw.io/24.2.5 Chrome/120.0.6099.109 Electron/28.1.0 Safari/537.36" etag="VRbhbohKzeN0eRWexpzq" version="24.2.5" type="device">
  <diagram name="페이지-1" id="Fg3F8MiWt500lfujR5S4">
    <mxGraphModel dx="1194" dy="657" grid="1" gridSize="10" guides="1" tooltips="1" connect="1" arrows="1" fold="1" page="1" pageScale="1" pageWidth="827" pageHeight="1169" math="0" shadow="0">
      <root>
        <mxCell id="0" />
        <mxCell id="1" parent="0" />
        <mxCell id="Xrz4ZLWfAwfnYSgGnZuo-4" value="" style="edgeStyle=orthogonalEdgeStyle;rounded=0;orthogonalLoop=1;jettySize=auto;html=1;entryX=0.5;entryY=0;entryDx=0;entryDy=0;" edge="1" parent="1" source="Xrz4ZLWfAwfnYSgGnZuo-1" target="Xrz4ZLWfAwfnYSgGnZuo-11">
          <mxGeometry relative="1" as="geometry">
            <mxPoint x="420" y="240" as="targetPoint" />
          </mxGeometry>
        </mxCell>
        <mxCell id="Xrz4ZLWfAwfnYSgGnZuo-1" value="start" style="rounded=1;whiteSpace=wrap;html=1;" vertex="1" parent="1">
          <mxGeometry x="360" y="250" width="120" height="60" as="geometry" />
        </mxCell>
        <mxCell id="Xrz4ZLWfAwfnYSgGnZuo-7" value="end" style="rounded=1;whiteSpace=wrap;html=1;" vertex="1" parent="1">
          <mxGeometry x="360" y="470" width="120" height="60" as="geometry" />
        </mxCell>
        <mxCell id="Xrz4ZLWfAwfnYSgGnZuo-28" value="" style="edgeStyle=orthogonalEdgeStyle;rounded=0;orthogonalLoop=1;jettySize=auto;html=1;entryX=0.5;entryY=0;entryDx=0;entryDy=0;" edge="1" parent="1" source="Xrz4ZLWfAwfnYSgGnZuo-11" target="Xrz4ZLWfAwfnYSgGnZuo-7">
          <mxGeometry relative="1" as="geometry">
            <mxPoint x="420" y="450" as="targetPoint" />
          </mxGeometry>
        </mxCell>
        <mxCell id="Xrz4ZLWfAwfnYSgGnZuo-11" value="print&lt;div&gt;&quot;&lt;span style=&quot;background-color: initial;&quot;&gt;==========Client info==========&lt;/span&gt;&lt;span style=&quot;background-color: initial;&quot;&gt;&lt;div&gt;client IP: xxx.xxx.xxx.xxx&lt;/div&gt;&lt;div&gt;client port: xxxxx&lt;/div&gt;&lt;/span&gt;&lt;span style=&quot;background-color: initial;&quot;&gt;===============================&lt;/span&gt;&lt;span style=&quot;background-color: initial;&quot;&gt;&quot;&lt;/span&gt;&lt;/div&gt;" style="rounded=0;whiteSpace=wrap;html=1;" vertex="1" parent="1">
          <mxGeometry x="290" y="350" width="260" height="90" as="geometry" />
        </mxCell>
      </root>
    </mxGraphModel>
  </diagram>
</mxfile>
